<?xml version="1.0" encoding="UTF-8"?><svg id="Layer_2" xmlns="http://www.w3.org/2000/svg" viewBox="0 0 358.37 358.4"><defs><style>.cls-1{fill:#009f2c;stroke:#000;stroke-miterlimit:10;stroke-width:.25px;}</style></defs><g id="Layer_1-2"><path d="M179.18,57.08c-67.45,0-122.12,54.68-122.12,122.12s54.68,122.12,122.12,122.12,122.12-54.68,122.12-122.12-54.68-122.12-122.12-122.12ZM179.18,278.37c-54.77,0-99.17-44.4-99.17-99.17s44.4-99.17,99.17-99.17,99.17,44.4,99.17,99.17-44.4,99.17-99.17,99.17Z"/><path d="M169.15,208.58l-22.77,2.94-2.75-10.37h-10.46l-2.29,10.37-23.41-2.29,18.27-61.14,25.52-1.29,17.9,61.78ZM141.98,187.09l-3.49-15.97-3.4,15.97h6.88Z"/><path d="M223.59,168.37c0,2.97-.44,5.6-1.33,7.89-.89,2.29-2.1,4.3-3.65,6.01-1.54,1.71-3.36,3.17-5.44,4.36-2.08,1.19-4.31,2.17-6.68,2.91-2.37.75-4.83,1.3-7.37,1.65-2.54.35-5.03.54-7.48.57v21.39h-21.39c0-7.01.01-13.98.05-20.93.03-6.95.08-13.95.14-21.02.06-3.73.08-7.47.05-11.2-.03-3.73.05-7.5.23-11.29,3.92-1.16,7.83-2.03,11.75-2.62,3.92-.58,7.96-.87,12.12-.87,2.36,0,4.71.19,7.07.57,2.36.38,4.61.99,6.77,1.81,2.16.83,4.16,1.86,6.01,3.1,1.85,1.24,3.45,2.72,4.8,4.43,1.35,1.71,2.41,3.66,3.19,5.85.78,2.19,1.17,4.64,1.17,7.37ZM203.21,169.93c0-1.99-.6-3.54-1.81-4.66-1.21-1.12-2.78-1.68-4.71-1.68-.64,0-1.31.05-2,.16-.69.11-1.34.24-1.95.39l-.55,13.4c.43.06.84.09,1.24.09h1.24c1.1,0,2.16-.18,3.19-.55s1.94-.9,2.73-1.58c.79-.69,1.43-1.5,1.91-2.43.47-.93.71-1.98.71-3.14Z"/><path d="M250.9,147.9l-5.05,62.51-19.37,1.01v-62.24l24.42-1.29Z"/><path class="cls-1" d="M320.54,238.38c3.58-8.32,5.89-16.01,7.42-22.52.19-.04,30.28-6.03,30.28-6.03l-.27-61.16-30.37-5.77c-1.35-6.33-3.41-13.76-6.62-21.82-3.35-8.4-7.14-15.46-10.66-21.14.09-.14,17.16-25.68,17.16-25.68l-43.44-43.05-25.56,17.4c-5.43-3.52-12.14-7.32-20.11-10.75-8.3-3.57-15.97-5.88-22.47-7.41-.02-.09-6.04-30.33-6.04-30.33l-61.16.27-5.77,30.37c-6.33,1.35-13.76,3.41-21.82,6.62-8.43,3.36-15.51,7.17-21.2,10.69l.08.09-25.75-17.2-43.05,43.44,17.4,25.56c-3.52,5.43-7.32,12.14-10.75,20.11-3.57,8.3-5.88,15.97-7.41,22.47-1.5.3-30.3,6.03-30.3,6.03l.27,61.16,30.37,5.77c1.35,6.33,3.41,13.76,6.62,21.82,3.35,8.41,7.15,15.47,10.67,21.16-.11.16-17.15,25.67-17.15,25.67l43.44,43.05,25.56-17.4c5.43,3.52,12.14,7.32,20.11,10.75,8.31,3.57,15.98,5.88,22.48,7.41.03.16,6.03,30.29,6.03,30.29l61.16-.27,5.77-30.37c6.33-1.35,13.76-3.41,21.82-6.62,8.42-3.35,15.48-7.15,21.17-10.67,1.34.9,25.69,17.16,25.69,17.16l43.05-43.44-17.4-25.56c3.52-5.43,7.32-12.14,10.75-20.11ZM179.18,301.32c-67.45,0-122.12-54.68-122.12-122.12s54.68-122.12,122.12-122.12,122.12,54.68,122.12,122.12-54.68,122.12-122.12,122.12Z"/></g></svg>