<?xml version="1.0" encoding="UTF-8"?><svg id="Layer_2" xmlns="http://www.w3.org/2000/svg" viewBox="0 0 754 754"><defs><style>.cls-1{stroke:#8bbbbb;stroke-miterlimit:10;stroke-width:4px;}.cls-1,.cls-2{fill:#00657f;}.cls-3{fill:#fff;}.cls-4{fill:#8bbbbb;}</style></defs><g id="Layer_1-2"><rect class="cls-1" x="2" y="2" width="750" height="750" rx="56" ry="56"/><rect class="cls-3" x="27" y="139.5" width="700" height="475" rx="25.33" ry="25.33"/><rect class="cls-4" x="159.15" y="189.5" width="12.79" height="375" rx="6.18" ry="6.18"/><rect class="cls-2" x="51.94" y="189.5" width="87.09" height="72.29" rx="11.02" ry="11.02"/><rect class="cls-4" x="51.94" y="275.07" width="61.28" height="12.46" rx="6.03" ry="6.03"/><rect class="cls-2" x="51.94" y="308.26" width="87.09" height="72.29" rx="11.02" ry="11.02"/><rect class="cls-4" x="51.94" y="393.82" width="61.28" height="12.46" rx="6.03" ry="6.03"/><rect class="cls-2" x="51.94" y="427.01" width="87.09" height="72.29" rx="11.02" ry="11.02"/><rect class="cls-4" x="51.94" y="512.58" width="61.28" height="12.46" rx="6.03" ry="6.03"/><rect class="cls-4" x="299.47" y="189.5" width="12.79" height="375" rx="6.18" ry="6.18"/><rect class="cls-2" x="192.26" y="189.5" width="87.09" height="72.29" rx="11.02" ry="11.02"/><rect class="cls-4" x="192.26" y="275.07" width="61.28" height="12.46" rx="6.03" ry="6.03"/><rect class="cls-2" x="192.26" y="308.26" width="87.09" height="72.29" rx="11.02" ry="11.02"/><rect class="cls-4" x="192.26" y="393.82" width="61.28" height="12.46" rx="6.03" ry="6.03"/><rect class="cls-4" x="439.56" y="189.5" width="12.79" height="375" rx="6.18" ry="6.18"/><rect class="cls-4" x="332.36" y="189.5" width="87.09" height="72.29" rx="11.02" ry="11.02"/><rect class="cls-2" x="332.36" y="275.07" width="61.28" height="12.46" rx="6.03" ry="6.03"/><rect class="cls-4" x="332.36" y="308.26" width="87.09" height="72.29" rx="11.02" ry="11.02"/><rect class="cls-2" x="332.36" y="393.82" width="61.28" height="12.46" rx="6.03" ry="6.03"/><rect class="cls-4" x="332.36" y="427.01" width="87.09" height="72.29" rx="11.02" ry="11.02"/><rect class="cls-2" x="332.36" y="512.58" width="61.28" height="12.46" rx="6.03" ry="6.03"/><rect class="cls-4" x="579.88" y="189.5" width="12.79" height="375" rx="6.18" ry="6.18"/><rect class="cls-4" x="472.67" y="189.5" width="87.09" height="72.29" rx="11.02" ry="11.02"/><rect class="cls-2" x="472.67" y="275.07" width="61.28" height="12.46" rx="6.03" ry="6.03"/><rect class="cls-4" x="472.67" y="308.26" width="87.09" height="72.29" rx="11.02" ry="11.02"/><rect class="cls-2" x="472.67" y="393.82" width="61.28" height="12.46" rx="6.03" ry="6.03"/><rect class="cls-4" x="614.97" y="189.5" width="87.09" height="72.29" rx="11.02" ry="11.02"/><rect class="cls-2" x="614.97" y="275.07" width="61.28" height="12.46" rx="6.03" ry="6.03"/><rect class="cls-4" x="614.97" y="308.26" width="87.09" height="72.29" rx="11.02" ry="11.02"/><rect class="cls-2" x="614.97" y="393.82" width="61.28" height="12.46" rx="6.03" ry="6.03"/><rect class="cls-4" x="614.97" y="427.01" width="87.09" height="72.29" rx="11.02" ry="11.02"/><rect class="cls-2" x="614.97" y="512.58" width="61.28" height="12.46" rx="6.03" ry="6.03"/></g></svg>