<?xml version="1.0" encoding="UTF-8"?><svg id="Layer_2" xmlns="http://www.w3.org/2000/svg" viewBox="0 0 650.11 335.54"><defs><style>.cls-1{fill:#00657f;}.cls-2{fill:#8bbbbb;}</style></defs><g id="Layer_1-2"><rect class="cls-1" x="0" width="87.09" height="72.29" rx="11.02" ry="11.02"/><rect class="cls-2" x="0" y="85.57" width="61.28" height="12.46" rx="6.03" ry="6.03"/><rect class="cls-1" x="0" y="118.76" width="87.09" height="72.29" rx="11.02" ry="11.02"/><rect class="cls-2" x="0" y="204.32" width="61.28" height="12.46" rx="6.03" ry="6.03"/><rect class="cls-1" x="0" y="237.51" width="87.09" height="72.29" rx="11.02" ry="11.02"/><rect class="cls-2" x="0" y="323.08" width="61.28" height="12.46" rx="6.03" ry="6.03"/><rect class="cls-1" x="140.32" width="87.09" height="72.29" rx="11.02" ry="11.02"/><rect class="cls-2" x="140.32" y="85.57" width="61.28" height="12.46" rx="6.03" ry="6.03"/><rect class="cls-1" x="140.32" y="118.76" width="87.09" height="72.29" rx="11.02" ry="11.02"/><rect class="cls-2" x="140.32" y="204.32" width="61.28" height="12.46" rx="6.03" ry="6.03"/><rect class="cls-2" x="280.41" width="87.09" height="72.29" rx="11.02" ry="11.02"/><rect class="cls-1" x="280.41" y="85.57" width="61.28" height="12.46" rx="6.03" ry="6.03"/><rect class="cls-2" x="280.41" y="118.76" width="87.09" height="72.29" rx="11.02" ry="11.02"/><rect class="cls-1" x="280.41" y="204.32" width="61.28" height="12.46" rx="6.03" ry="6.03"/><rect class="cls-2" x="280.41" y="237.51" width="87.09" height="72.29" rx="11.02" ry="11.02"/><rect class="cls-1" x="280.41" y="323.08" width="61.28" height="12.46" rx="6.03" ry="6.03"/><rect class="cls-2" x="420.73" width="87.09" height="72.29" rx="11.02" ry="11.02"/><rect class="cls-1" x="420.73" y="85.57" width="61.28" height="12.46" rx="6.03" ry="6.03"/><rect class="cls-2" x="420.73" y="118.76" width="87.09" height="72.29" rx="11.02" ry="11.02"/><rect class="cls-1" x="420.73" y="204.32" width="61.28" height="12.46" rx="6.03" ry="6.03"/><rect class="cls-2" x="563.03" width="87.09" height="72.29" rx="11.02" ry="11.02"/><rect class="cls-1" x="563.03" y="85.57" width="61.28" height="12.46" rx="6.03" ry="6.03"/><rect class="cls-2" x="563.03" y="118.76" width="87.09" height="72.29" rx="11.02" ry="11.02"/><rect class="cls-1" x="563.03" y="204.32" width="61.28" height="12.46" rx="6.03" ry="6.03"/><rect class="cls-2" x="563.03" y="237.51" width="87.09" height="72.29" rx="11.02" ry="11.02"/><rect class="cls-1" x="563.03" y="323.08" width="61.28" height="12.46" rx="6.03" ry="6.03"/></g></svg>