<?xml version="1.0" encoding="UTF-8"?><svg id="Layer_2" xmlns="http://www.w3.org/2000/svg" viewBox="0 0 700 475"><defs><style>.cls-1{fill:#00657f;}.cls-2{fill:#fff;}.cls-3{fill:#8bbbbb;}</style></defs><g id="Layer_1-2"><rect class="cls-2" width="700" height="475" rx="25.33" ry="25.33"/><rect class="cls-3" x="132.15" y="50" width="12.79" height="375" rx="6.18" ry="6.18"/><rect class="cls-1" x="24.94" y="50" width="87.09" height="72.29" rx="11.02" ry="11.02"/><rect class="cls-3" x="24.94" y="135.57" width="61.28" height="12.46" rx="6.03" ry="6.03"/><rect class="cls-1" x="24.94" y="168.76" width="87.09" height="72.29" rx="11.02" ry="11.02"/><rect class="cls-3" x="24.94" y="254.32" width="61.28" height="12.46" rx="6.03" ry="6.03"/><rect class="cls-1" x="24.94" y="287.51" width="87.09" height="72.29" rx="11.02" ry="11.02"/><rect class="cls-3" x="24.94" y="373.08" width="61.28" height="12.46" rx="6.03" ry="6.03"/><rect class="cls-3" x="272.47" y="50" width="12.79" height="375" rx="6.18" ry="6.18"/><rect class="cls-1" x="165.26" y="50" width="87.09" height="72.29" rx="11.02" ry="11.02"/><rect class="cls-3" x="165.26" y="135.57" width="61.28" height="12.46" rx="6.03" ry="6.03"/><rect class="cls-1" x="165.26" y="168.76" width="87.09" height="72.29" rx="11.02" ry="11.02"/><rect class="cls-3" x="165.26" y="254.32" width="61.28" height="12.46" rx="6.03" ry="6.03"/><rect class="cls-3" x="412.56" y="50" width="12.79" height="375" rx="6.18" ry="6.18"/><rect class="cls-3" x="305.36" y="50" width="87.09" height="72.29" rx="11.02" ry="11.02"/><rect class="cls-1" x="305.36" y="135.57" width="61.28" height="12.46" rx="6.03" ry="6.03"/><rect class="cls-3" x="305.36" y="168.76" width="87.09" height="72.29" rx="11.02" ry="11.02"/><rect class="cls-1" x="305.36" y="254.32" width="61.28" height="12.46" rx="6.03" ry="6.03"/><rect class="cls-3" x="305.36" y="287.51" width="87.09" height="72.29" rx="11.02" ry="11.02"/><rect class="cls-1" x="305.36" y="373.08" width="61.28" height="12.46" rx="6.03" ry="6.03"/><rect class="cls-3" x="552.88" y="50" width="12.79" height="375" rx="6.18" ry="6.18"/><rect class="cls-3" x="445.67" y="50" width="87.09" height="72.29" rx="11.02" ry="11.02"/><rect class="cls-1" x="445.67" y="135.57" width="61.28" height="12.46" rx="6.03" ry="6.03"/><rect class="cls-3" x="445.67" y="168.76" width="87.09" height="72.29" rx="11.02" ry="11.02"/><rect class="cls-1" x="445.67" y="254.32" width="61.28" height="12.46" rx="6.03" ry="6.03"/><rect class="cls-3" x="587.97" y="50" width="87.09" height="72.29" rx="11.02" ry="11.02"/><rect class="cls-1" x="587.97" y="135.57" width="61.28" height="12.46" rx="6.03" ry="6.03"/><rect class="cls-3" x="587.97" y="168.76" width="87.09" height="72.29" rx="11.02" ry="11.02"/><rect class="cls-1" x="587.97" y="254.32" width="61.28" height="12.46" rx="6.03" ry="6.03"/><rect class="cls-3" x="587.97" y="287.51" width="87.09" height="72.29" rx="11.02" ry="11.02"/><rect class="cls-1" x="587.97" y="373.08" width="61.28" height="12.46" rx="6.03" ry="6.03"/></g></svg>