<?xml version="1.0" encoding="UTF-8"?><svg id="Layer_2" xmlns="http://www.w3.org/2000/svg" viewBox="0 0 754 754"><defs><style>.cls-1{stroke-width:4px;}.cls-1,.cls-2{fill:#00657f;}.cls-1,.cls-3{stroke:#8bbbbb;stroke-miterlimit:10;}.cls-4{fill:#fff;}.cls-3{fill:#f3efe4;stroke-width:3px;}.cls-5{fill:#8bbbbb;}</style></defs><g id="Layer_1-2"><rect class="cls-1" x="2" y="2" width="750" height="750" rx="56" ry="56"/><rect class="cls-4" x="27" y="50.5" width="700" height="475" rx="25.33" ry="25.33"/><rect class="cls-5" x="159.15" y="100.5" width="12.79" height="375" rx="6.18" ry="6.18"/><rect class="cls-2" x="51.94" y="100.5" width="87.09" height="72.29" rx="11.02" ry="11.02"/><rect class="cls-5" x="51.94" y="186.07" width="61.28" height="12.46" rx="6.03" ry="6.03"/><rect class="cls-2" x="51.94" y="219.26" width="87.09" height="72.29" rx="11.02" ry="11.02"/><rect class="cls-5" x="51.94" y="304.82" width="61.28" height="12.46" rx="6.03" ry="6.03"/><rect class="cls-2" x="51.94" y="338.01" width="87.09" height="72.29" rx="11.02" ry="11.02"/><rect class="cls-5" x="51.94" y="423.58" width="61.28" height="12.46" rx="6.03" ry="6.03"/><rect class="cls-5" x="299.47" y="100.5" width="12.79" height="375" rx="6.18" ry="6.18"/><rect class="cls-2" x="192.26" y="100.5" width="87.09" height="72.29" rx="11.02" ry="11.02"/><rect class="cls-5" x="192.26" y="186.07" width="61.28" height="12.46" rx="6.03" ry="6.03"/><rect class="cls-2" x="192.26" y="219.26" width="87.09" height="72.29" rx="11.02" ry="11.02"/><rect class="cls-5" x="192.26" y="304.82" width="61.28" height="12.46" rx="6.03" ry="6.03"/><rect class="cls-5" x="439.56" y="100.5" width="12.79" height="375" rx="6.18" ry="6.18"/><rect class="cls-5" x="332.36" y="100.5" width="87.09" height="72.29" rx="11.02" ry="11.02"/><rect class="cls-2" x="332.36" y="186.07" width="61.28" height="12.46" rx="6.03" ry="6.03"/><rect class="cls-5" x="332.36" y="219.26" width="87.09" height="72.29" rx="11.02" ry="11.02"/><rect class="cls-2" x="332.36" y="304.82" width="61.28" height="12.46" rx="6.03" ry="6.03"/><rect class="cls-5" x="332.36" y="338.01" width="87.09" height="72.29" rx="11.02" ry="11.02"/><rect class="cls-2" x="332.36" y="423.58" width="61.28" height="12.46" rx="6.03" ry="6.03"/><rect class="cls-5" x="579.88" y="100.5" width="12.79" height="375" rx="6.18" ry="6.18"/><rect class="cls-5" x="472.67" y="100.5" width="87.09" height="72.29" rx="11.02" ry="11.02"/><rect class="cls-2" x="472.67" y="186.07" width="61.28" height="12.46" rx="6.03" ry="6.03"/><rect class="cls-5" x="472.67" y="219.26" width="87.09" height="72.29" rx="11.02" ry="11.02"/><rect class="cls-2" x="472.67" y="304.82" width="61.28" height="12.46" rx="6.03" ry="6.03"/><rect class="cls-5" x="614.97" y="100.5" width="87.09" height="72.29" rx="11.02" ry="11.02"/><rect class="cls-2" x="614.97" y="186.07" width="61.28" height="12.46" rx="6.03" ry="6.03"/><rect class="cls-5" x="614.97" y="219.26" width="87.09" height="72.29" rx="11.02" ry="11.02"/><rect class="cls-2" x="614.97" y="304.82" width="61.28" height="12.46" rx="6.03" ry="6.03"/><rect class="cls-5" x="614.97" y="338.01" width="87.09" height="72.29" rx="11.02" ry="11.02"/><rect class="cls-2" x="614.97" y="423.58" width="61.28" height="12.46" rx="6.03" ry="6.03"/><path class="cls-3" d="M105.03,641.25c0,5.15-.63,9.84-1.9,14.06-1.27,4.22-3.12,7.85-5.57,10.89-2.45,3.04-5.49,5.4-9.12,7.09-3.63,1.69-7.81,2.53-12.54,2.53-2.62,0-5.07-.25-7.35-.76-2.28-.51-4.48-1.22-6.59-2.15v25.08h-18.87v-87.77c1.69-.51,3.63-.99,5.83-1.46,2.19-.46,4.5-.86,6.9-1.2,2.41-.34,4.85-.61,7.35-.82,2.49-.21,4.88-.32,7.16-.32,5.49,0,10.38.82,14.69,2.47,4.31,1.65,7.94,3.97,10.89,6.97,2.95,3,5.21,6.65,6.78,10.96,1.56,4.31,2.34,9.12,2.34,14.44ZM85.78,641.76c0-5.83-1.31-10.49-3.93-14-2.62-3.5-6.5-5.26-11.65-5.26-1.69,0-3.25.06-4.69.19-1.44.13-2.62.28-3.55.44v34.07c1.18.76,2.72,1.39,4.62,1.9,1.9.51,3.82.76,5.76.76,8.95,0,13.42-6.04,13.42-18.11Z"/><path class="cls-3" d="M156.19,639.22c0-6.08-.78-10.38-2.34-12.92-1.56-2.53-4.24-3.8-8.04-3.8-1.18,0-2.41.06-3.67.19-1.27.13-2.49.28-3.67.44v51.42h-18.87v-64.34c1.6-.42,3.48-.86,5.64-1.33,2.15-.46,4.43-.89,6.84-1.27,2.41-.38,4.88-.68,7.41-.89,2.53-.21,5.02-.32,7.47-.32,4.81,0,8.72.61,11.71,1.84,3,1.22,5.47,2.68,7.41,4.37,2.7-1.94,5.8-3.46,9.31-4.56,3.5-1.1,6.73-1.65,9.69-1.65,5.32,0,9.69.74,13.11,2.22,3.42,1.48,6.14,3.57,8.17,6.27,2.03,2.7,3.42,5.91,4.18,9.63.76,3.72,1.14,7.85,1.14,12.41v37.61h-18.87v-35.34c0-6.08-.78-10.38-2.34-12.92-1.56-2.53-4.24-3.8-8.04-3.8-1.01,0-2.43.25-4.24.76-1.82.51-3.31,1.14-4.5,1.9.59,1.94.97,3.99,1.14,6.14.17,2.15.25,4.45.25,6.9v36.35h-18.87v-35.34Z"/><path class="cls-3" d="M290.69,641.25c0,5.32-.78,10.13-2.34,14.44-1.56,4.31-3.82,7.98-6.78,11.02-2.96,3.04-6.59,5.38-10.89,7.03-4.31,1.65-9.2,2.47-14.69,2.47-2.28,0-4.67-.11-7.16-.32-2.49-.21-4.94-.49-7.35-.82-2.41-.34-4.71-.74-6.9-1.2-2.2-.46-4.14-.95-5.83-1.46v-93.09l18.87-3.04v33.18c2.11-.93,4.31-1.65,6.59-2.15,2.28-.51,4.73-.76,7.35-.76,4.73,0,8.91.82,12.54,2.47,3.63,1.65,6.67,3.99,9.12,7.03,2.45,3.04,4.31,6.69,5.57,10.96,1.27,4.26,1.9,9.01,1.9,14.25ZM271.44,640.74c0-12.16-4.48-18.24-13.42-18.24-1.94,0-3.86.25-5.76.76-1.9.51-3.44,1.14-4.62,1.9v34.32c.93.17,2.11.32,3.55.44,1.43.13,3,.19,4.69.19,5.15,0,9.03-1.77,11.65-5.32,2.62-3.55,3.93-8.23,3.93-14.06Z"/><path class="cls-3" d="M367.57,641.12c0,5.24-.76,10.03-2.28,14.37-1.52,4.35-3.72,8.06-6.59,11.15-2.87,3.08-6.31,5.47-10.32,7.16-4.01,1.69-8.51,2.53-13.49,2.53s-9.35-.85-13.36-2.53c-4.01-1.69-7.45-4.07-10.32-7.16-2.87-3.08-5.11-6.8-6.71-11.15-1.6-4.35-2.41-9.14-2.41-14.37s.82-10.01,2.47-14.31c1.65-4.31,3.93-7.98,6.84-11.02,2.91-3.04,6.37-5.4,10.39-7.09,4.01-1.69,8.38-2.53,13.11-2.53s9.22.84,13.23,2.53c4.01,1.69,7.45,4.05,10.32,7.09,2.87,3.04,5.11,6.71,6.71,11.02,1.6,4.31,2.41,9.08,2.41,14.31ZM348.32,641.12c0-5.83-1.16-10.4-3.48-13.74-2.32-3.33-5.64-5-9.94-5s-7.64,1.67-10.01,5c-2.36,3.34-3.55,7.92-3.55,13.74s1.18,10.45,3.55,13.87c2.36,3.42,5.7,5.13,10.01,5.13s7.62-1.71,9.94-5.13c2.32-3.42,3.48-8.04,3.48-13.87Z"/><path class="cls-3" d="M406.07,606.17c5.57,0,10.21.63,13.93,1.9,3.71,1.27,6.69,3.08,8.93,5.45,2.24,2.36,3.82,5.24,4.75,8.61.93,3.38,1.39,7.14,1.39,11.27v39.26c-2.7.59-6.46,1.29-11.27,2.09s-10.64,1.2-17.48,1.2c-4.31,0-8.21-.38-11.71-1.14-3.5-.76-6.52-2-9.06-3.74-2.53-1.73-4.48-3.99-5.83-6.78-1.35-2.79-2.03-6.21-2.03-10.26s.78-7.18,2.34-9.88c1.56-2.7,3.65-4.85,6.27-6.46,2.62-1.6,5.61-2.76,8.99-3.48,3.38-.72,6.88-1.08,10.51-1.08,2.45,0,4.62.11,6.52.32,1.9.21,3.44.49,4.62.82v-1.77c0-3.21-.97-5.78-2.91-7.73-1.94-1.94-5.32-2.91-10.13-2.91-3.21,0-6.38.23-9.5.7-3.12.47-5.83,1.12-8.11,1.96l-2.41-15.2c1.1-.34,2.47-.7,4.12-1.08,1.65-.38,3.44-.72,5.38-1.01,1.94-.3,3.99-.55,6.14-.76,2.15-.21,4.33-.32,6.52-.32ZM407.59,661.39c1.86,0,3.63-.04,5.32-.13,1.69-.08,3.04-.21,4.05-.38v-14.31c-.76-.17-1.9-.34-3.42-.51-1.52-.17-2.91-.25-4.18-.25-1.77,0-3.44.11-5,.32-1.56.21-2.93.61-4.12,1.2-1.18.59-2.11,1.39-2.79,2.41-.68,1.01-1.01,2.28-1.01,3.8,0,2.96.99,5,2.98,6.14,1.98,1.14,4.71,1.71,8.17,1.71Z"/><path class="cls-3" d="M492.54,623.53c-.12.61-.73,1-1.33.86-1.43-.34-3.05-.69-4.85-1.06-2.28-.46-4.73-.7-7.35-.7-1.18,0-2.6.11-4.24.32-1.65.21-2.89.44-3.74.7v50.91h-18.87v-63.07c3.38-1.18,7.37-2.3,11.97-3.36,4.6-1.05,9.73-1.58,15.39-1.58,1.01,0,2.24.06,3.67.19,1.43.13,2.87.3,4.31.51,1.43.21,2.87.47,4.31.76,1.43.3,2.66.66,3.67,1.08l-2.94,14.45Z"/><path class="cls-3" d="M563.11,672.4c-1.69.51-3.63.99-5.83,1.46-2.2.47-4.5.86-6.9,1.2-2.41.34-4.86.61-7.35.82-2.49.21-4.88.32-7.16.32-5.49,0-10.39-.8-14.69-2.41-4.31-1.6-7.94-3.9-10.89-6.9-2.96-3-5.21-6.63-6.78-10.89-1.56-4.26-2.34-9.06-2.34-14.37s.67-10.28,2.03-14.63c1.35-4.35,3.29-8.04,5.83-11.08,2.53-3.04,5.64-5.36,9.31-6.97,3.67-1.6,7.87-2.41,12.6-2.41,2.62,0,4.96.25,7.03.76,2.07.51,4.16,1.23,6.27,2.15v-30.14l18.87-3.04v96.13ZM520.43,640.74c0,5.83,1.31,10.51,3.93,14.06,2.62,3.55,6.5,5.32,11.65,5.32,1.69,0,3.25-.06,4.69-.19,1.43-.13,2.62-.27,3.55-.44v-34.32c-1.18-.76-2.72-1.39-4.62-1.9-1.9-.51-3.82-.76-5.76-.76-8.95,0-13.42,6.08-13.42,18.24Z"/><path class="cls-3" d="M599.33,664.55c0,3.8-1.2,6.69-3.61,8.68-2.41,1.98-5.13,2.98-8.17,2.98s-5.76-.99-8.17-2.98c-2.41-1.98-3.61-4.88-3.61-8.68s1.2-6.69,3.61-8.68c2.41-1.98,5.13-2.98,8.17-2.98s5.76.99,8.17,2.98c2.41,1.99,3.61,4.88,3.61,8.68Z"/><path class="cls-3" d="M632.64,588.69c0,3.46-1.12,6.19-3.36,8.17-2.24,1.98-4.88,2.98-7.92,2.98s-5.68-.99-7.92-2.98c-2.24-1.98-3.36-4.71-3.36-8.17s1.12-6.18,3.36-8.17c2.24-1.98,4.88-2.98,7.92-2.98s5.68.99,7.92,2.98c2.24,1.98,3.36,4.71,3.36,8.17ZM630.86,674.56h-18.87v-66.62h18.87v66.62Z"/><path class="cls-3" d="M710.9,641.12c0,5.24-.76,10.03-2.28,14.37-1.52,4.35-3.72,8.06-6.59,11.15-2.87,3.08-6.31,5.47-10.32,7.16-4.01,1.69-8.51,2.53-13.49,2.53s-9.35-.85-13.36-2.53c-4.01-1.69-7.45-4.07-10.32-7.16-2.87-3.08-5.11-6.8-6.71-11.15-1.6-4.35-2.41-9.14-2.41-14.37s.82-10.01,2.47-14.31c1.65-4.31,3.93-7.98,6.84-11.02,2.91-3.04,6.37-5.4,10.39-7.09,4.01-1.69,8.38-2.53,13.11-2.53s9.22.84,13.23,2.53c4.01,1.69,7.45,4.05,10.32,7.09,2.87,3.04,5.11,6.71,6.71,11.02,1.6,4.31,2.41,9.08,2.41,14.31ZM691.65,641.12c0-5.83-1.16-10.4-3.48-13.74-2.32-3.33-5.64-5-9.94-5s-7.64,1.67-10.01,5c-2.36,3.34-3.55,7.92-3.55,13.74s1.18,10.45,3.55,13.87c2.36,3.42,5.7,5.13,10.01,5.13s7.62-1.71,9.94-5.13c2.32-3.42,3.48-8.04,3.48-13.87Z"/></g></svg>